<?xml version="1.0" standalone="no"?>
<!DOCTYPE svg PUBLIC "-//W3C//DTD SVG 20010904//EN" "http://www.w3.org/TR/2001/REC-SVG-20010904/DTD/svg10.dtd">
<!-- Created using Krita: https://krita.org -->
<svg xmlns="http://www.w3.org/2000/svg" 
    xmlns:xlink="http://www.w3.org/1999/xlink"
    xmlns:krita="http://krita.org/namespaces/svg/krita"
    xmlns:sodipodi="http://sodipodi.sourceforge.net/DTD/sodipodi-0.dtd"
    width="480pt"
    height="480pt"
    viewBox="0 0 480 480">
<defs/>
<rect id="shape0" transform="matrix(0.997524704979373 0 0 1.00022062344958 111.403146217666 75.8136898395721)" fill="none" stroke="#e09377" stroke-width="9.6" stroke-linecap="square" stroke-linejoin="bevel" width="248.16" height="216.24"/><ellipse id="shape1" transform="translate(68.1156120912983, 99.4909090909091)" rx="29.88" ry="7.08" cx="29.88" cy="7.08" fill="none" stroke="#a6a6a6" stroke-width="9.6" stroke-linecap="square" stroke-linejoin="bevel"/><ellipse id="shape01" transform="matrix(0.999999992310424 0 0 0.999999992310424 68.1156120912983 128.794046322159)" rx="29.88" ry="7.08" cx="29.88" cy="7.08" fill="none" stroke="#a6a6a6" stroke-width="9.6" stroke-linecap="square" stroke-linejoin="bevel"/><ellipse id="shape01" transform="matrix(0.999999975173698 0 0 0.999999975173698 68.1156120912984 158.097183620295)" rx="29.88" ry="7.08" cx="29.88" cy="7.08" fill="none" stroke="#a6a6a6" stroke-width="9.6" stroke-linecap="square" stroke-linejoin="bevel"/><ellipse id="shape02" transform="matrix(0.999999975173698 0 0 0.999999975173698 68.1156120912984 187.400320797103)" rx="29.88" ry="7.08" cx="29.88" cy="7.08" fill="none" stroke="#a6a6a6" stroke-width="9.6" stroke-linecap="square" stroke-linejoin="bevel"/><ellipse id="shape03" transform="matrix(0.999999975173698 0 0 0.999999975173698 68.1156120912984 216.703457973911)" rx="29.88" ry="7.08" cx="29.88" cy="7.08" fill="none" stroke="#a6a6a6" stroke-width="9.6" stroke-linecap="square" stroke-linejoin="bevel"/><ellipse id="shape04" transform="matrix(0.999999975173698 0 0 0.999999975173698 68.1156120912984 246.006595150719)" rx="29.88" ry="7.08" cx="29.88" cy="7.08" fill="none" stroke="#a6a6a6" stroke-width="9.6" stroke-linecap="square" stroke-linejoin="bevel"/><ellipse id="shape05" transform="matrix(0.999999975173698 0 0 0.999999975173698 68.1156120912984 275.309732327527)" rx="29.88" ry="7.08" cx="29.88" cy="7.08" fill="none" stroke="#a6a6a6" stroke-width="9.6" stroke-linecap="square" stroke-linejoin="bevel"/><rect id="shape2" transform="matrix(0.997524704979373 0 0 1.00022062344958 92.0688770053476 89.9241819374859)" fill="#48e8fd" fill-rule="evenodd" stroke="#e09377" stroke-width="9.6" stroke-linecap="square" stroke-linejoin="bevel" width="252.96" height="224.4"/><path id="shape3" transform="matrix(-1 0 0 1 395.978824074139 137.451765635123)" fill="#fedabb" fill-rule="evenodd" stroke="#fedabb" stroke-width="9.6" stroke-linecap="square" stroke-linejoin="miter" stroke-miterlimit="2" d="M2.11765 153.176L0 0"/><ellipse id="shape4" transform="translate(379.080000544727, 92.640000929241)" rx="15.84" ry="24.24" cx="15.84" cy="24.24" fill="#e4ba98" fill-rule="evenodd" stroke="#fedabb" stroke-width="9.6" stroke-linecap="square" stroke-linejoin="bevel"/><text id="shape0" krita:useRichText="true" transform="translate(106.55999644325, 206.83999346327)" fill="#ffffff" stroke="#000000" stroke-opacity="0" stroke-width="0" stroke-linecap="square" stroke-linejoin="bevel" font-size="28" font-size-adjust="0.208333" font-stretch="normal" letter-spacing="0" word-spacing="0"><tspan x="0">Cook Book</tspan></text>
</svg>
